<?xml version="1.0" encoding="UTF-8"?>
<svg id="Layer_2" data-name="Layer 2" xmlns="http://www.w3.org/2000/svg" width="42.46" height="37.74" viewBox="0 0 42.46 37.74">
  <g id="Layer_1-2" data-name="Layer 1">
    <g>
      <rect x="14.16" y="21.64" width="28.3" height="16.04" rx="3.33" ry="3.33" fill="#a39693" stroke-width="0"/>
      <path d="M23.06,37.74H1.55c-1.82,0-2.07-1.5-.56-3.35l7.76-9.45c1.52-1.85,4.23-3.35,6.05-3.35h21.51c1.82,0,2.07,1.5.56,3.35l-7.76,9.45c-1.52,1.85-4.23,3.35-6.05,3.35Z" fill="#d9c7c3" stroke-width="0"/>
      <rect x="11.37" width="31.07" height="17.88" rx="1.34" ry="1.34" fill="#a39693" stroke-width="0"/>
      <path d="M22.02,35.72H5.9c-1.37,0-1.55-1.12-.42-2.51l5.81-7.09c1.14-1.39,3.17-2.51,4.54-2.51h16.12c1.37,0,1.55,1.12.42,2.51l-5.81,7.09c-1.14,1.39-3.17,2.51-4.54,2.51Z" fill="#b8a8a5" stroke-width="0"/>
      <rect x="9.7" width="31.07" height="17.88" rx="1.34" ry="1.34" fill="#d9c7c3" stroke-width="0"/>
      <rect x="11.67" y="1.09" width="27.2" height="15.65" rx="1.15" ry="1.15" fill="#292525" stroke-width="0"/>
      <rect x="25.2" y="17.88" width="1.91" height="3.71" fill="#a39693" stroke-width="0"/>
      <rect x="24.14" y="17.88" width="1.91" height="3.71" fill="#d9c7c3" stroke-width="0"/>
    </g>
  </g>
</svg>