<?xml version="1.0" encoding="UTF-8"?>
<svg id="Layer_2" data-name="Layer 2" xmlns="http://www.w3.org/2000/svg" width="18.9" height="18.9" viewBox="0 0 18.9 18.9">
  <g id="Layer_1-2" data-name="Layer 1">
    <path d="M9.45,0c5.22,0,9.45,4.23,9.45,9.45s-4.23,9.45-9.45,9.45c-2,0-3.87-.63-5.4-1.69-.54-.38-.67-1.11-.29-1.65.38-.54,1.11-.66,1.65-.29,1.15.8,2.54,1.27,4.05,1.27,3.91,0,7.09-3.17,7.09-7.09s-3.17-7.09-7.09-7.09c-1.96,0-3.73.79-5.01,2.07l1.14,1.14c.56.56.16,1.51-.63,1.51H.89c-.49,0-.89-.4-.89-.89V2.14c0-.79.96-1.18,1.51-.62l1.25,1.25C4.48,1.06,6.84,0,9.45,0ZM9.44,4.72c.49,0,.89.4.89.89v3.47l2.4,2.4c.35.34.34.9,0,1.25-.34.35-.9.35-1.25,0l-2.66-2.66c-.17-.17-.26-.39-.26-.63v-3.84c0-.49.4-.89.89-.89h0Z" fill="#ffb319" stroke-width="0"/>
  </g>
</svg>